<svg width="312" height="47" viewBox="0 0 312 47" fill="none" xmlns="http://www.w3.org/2000/svg">
<path d="M43.7835 3.43689H3V43.5217H43.7835V3.43689Z" fill="white" stroke="#453C3A" stroke-width="5" stroke-miterlimit="10"/>
<path d="M13.328 13.1973V42.2938" stroke="#453C3A" stroke-width="5" stroke-miterlimit="10"/>
<path d="M23.3918 14.4253V43.5218" stroke="#453C3A" stroke-width="5" stroke-miterlimit="10"/>
<path d="M3.5863 3.04883V43.1273L44.3698 3.04883H3.5863Z" fill="#453C3A"/>
<path d="M84.741 5.14209C85.817 5.14209 86.5579 5.28843 86.951 5.58748C87.3504 5.88652 87.5437 6.47825 87.5437 7.36903C87.5437 8.50158 87.1829 9.67231 86.4677 10.8812C82.8919 9.44962 77.976 8.737 71.7135 8.737H69.2459C69.1106 10.8367 69.0461 15.2906 69.0461 22.0923H83.0594C83.3043 22.8176 83.4267 23.5811 83.4267 24.3765C83.4267 24.8982 83.33 25.2481 83.1432 25.4199C82.9564 25.5981 82.5827 25.6872 82.035 25.6872H69.0397C69.059 33.3096 69.1235 38.1898 69.2394 40.3277H73.8074C74.0329 40.8876 74.1489 41.4221 74.1489 41.9438C74.1489 42.4083 74.0523 42.7328 73.8654 42.9173C73.6786 43.1018 73.3436 43.1972 72.8732 43.1972H59.5493C59.3045 42.5673 59.1821 41.982 59.1821 41.4411C59.1821 41.053 59.2787 40.7667 59.4784 40.5885C59.6782 40.4104 60.0003 40.3213 60.4578 40.3213H62.5581C62.687 37.7381 62.7579 31.1082 62.7579 20.4443C62.7579 14.737 62.6934 10.5949 62.5581 8.01166H59.5493C59.3045 7.38175 59.1821 6.79638 59.1821 6.25556C59.1821 5.86743 59.2787 5.58111 59.4784 5.40296C59.6782 5.23117 60.0003 5.14209 60.4578 5.14209H84.741Z" fill="#453C3A"/>
<path d="M98.6126 12.2111C98.5352 10.0668 98.3999 8.66705 98.2002 8.0117C98.0005 7.3627 97.6784 6.94277 97.2209 6.75825C96.7699 6.57373 96.1707 6.47829 95.4362 6.47829C95.1914 5.89929 95.069 5.33301 95.069 4.77946C95.069 4.20682 95.3138 3.84415 95.7906 3.69144C96.2738 3.5451 97.8265 3.46875 100.455 3.46875C101.95 3.46875 102.962 3.53874 103.49 3.67872C104.018 3.8187 104.321 4.07957 104.398 4.46133C104.476 4.84309 104.514 5.49844 104.514 6.42739V29.7657C104.534 34.2259 104.611 37.7508 104.74 40.3341H107.89C108.116 40.8176 108.232 41.3394 108.232 41.8929C108.232 42.3956 108.129 42.7392 107.923 42.9237C107.716 43.1082 107.317 43.2036 106.731 43.2036H95.4362C95.1914 42.6119 95.069 42.052 95.069 41.5303C95.069 41.123 95.1721 40.8176 95.3782 40.6268C95.5844 40.4359 95.9259 40.3341 96.4027 40.3341H98.503C98.6512 37.7508 98.7285 33.3797 98.7285 27.227C98.7285 19.3627 98.6899 14.3553 98.6126 12.2111Z" fill="#453C3A"/>
<path d="M120.544 40.5504C118.618 38.4125 117.651 35.1866 117.651 30.8728C117.651 25.9099 118.818 22.0541 121.156 19.2991C123.489 16.5504 126.865 15.1697 131.272 15.1697C135.376 15.1697 138.391 16.2386 140.324 18.3765C142.257 20.5143 143.217 23.7466 143.217 28.0795C143.217 33.0233 142.051 36.8728 139.712 39.6214C137.373 42.3701 134.003 43.7508 129.597 43.7508C125.492 43.7572 122.477 42.6882 120.544 40.5504ZM135.356 37.6235C136.323 36.0265 136.806 33.5642 136.806 30.2365C136.806 26.4062 136.31 23.562 135.318 21.7041C134.326 19.8462 132.618 18.9173 130.196 18.9173C128.037 18.9173 126.478 19.719 125.518 21.316C124.552 22.9131 124.068 25.3881 124.068 28.7349C124.068 32.5461 124.565 35.3775 125.557 37.2354C126.549 39.0933 128.256 40.0223 130.679 40.0223C132.831 40.0223 134.39 39.2206 135.356 37.6235Z" fill="#453C3A"/>
<path d="M153.828 16.0287C154.228 15.8887 156.734 15.7487 161.347 15.596C161.463 16.4486 161.463 17.5939 161.347 19.0255C163.447 17.6321 165.464 16.6649 167.403 16.1241C169.343 15.5833 171.108 15.316 172.693 15.316C173.221 15.316 173.576 15.3797 173.756 15.4942C173.937 15.6151 174.027 15.8823 174.027 16.2895C174.027 17.0912 173.898 17.9438 173.647 18.8537C173.389 19.7635 173.086 20.3426 172.725 20.5843C172.364 20.8261 171.772 21.0106 170.941 21.1442C170.109 21.2715 169.62 21.3033 169.478 21.227C169.336 21.1506 168.905 20.6416 168.189 19.6936C166.508 19.6936 165.142 20.2217 164.105 21.2715C163.067 22.3213 162.545 24.4338 162.545 27.6151C162.565 33.3224 162.642 37.5599 162.771 40.3277H166.772C166.998 40.8113 167.113 41.333 167.113 41.8866C167.113 42.3892 167.01 42.7328 166.804 42.9173C166.598 43.1018 166.199 43.1973 165.612 43.1973H153.609C153.364 42.6055 153.242 42.0456 153.242 41.5239C153.242 41.1167 153.345 40.8113 153.551 40.6204C153.757 40.4231 154.099 40.3277 154.569 40.3277H156.528C156.682 37.5599 156.753 33.9332 156.753 29.4539C156.753 23.9693 156.534 20.7943 156.103 19.9163C155.664 19.0446 154.833 18.6055 153.603 18.6055C153.358 18.0838 153.236 17.543 153.236 16.9894C153.229 16.4868 153.429 16.1686 153.828 16.0287Z" fill="#453C3A"/>
<path d="M203.677 17.632C205.378 19.2672 206.228 21.965 206.228 25.719C206.228 27.3733 205.925 28.5249 205.32 29.1739C204.714 29.8229 203.393 30.1474 201.351 30.1474H188.813C188.852 33.176 189.47 35.5557 190.669 37.2863C191.867 39.017 193.993 39.8823 197.034 39.8823C199.869 39.8823 202.511 39.1569 204.953 37.7063C205.764 38.5079 206.17 39.3542 206.17 40.245C206.17 41.492 205.127 42.3637 203.033 42.8664C200.945 43.369 198.581 43.6172 195.952 43.6172C191.107 43.6172 187.634 42.6119 185.527 40.5949C183.42 38.5779 182.364 35.1803 182.364 30.4019C182.364 25.6999 183.549 21.9841 185.927 19.2609C188.298 16.5376 191.603 15.176 195.842 15.176C199.36 15.176 201.976 15.9968 203.677 17.632ZM190.456 20.9088C189.47 22.2386 188.936 24.3128 188.839 27.1379H191.764C194.863 27.1379 196.976 27.0806 198.104 26.9533C199.231 26.8324 199.882 26.6352 200.062 26.3552C200.243 26.0753 200.333 25.5535 200.333 24.7964C200.333 22.9576 199.863 21.5132 198.916 20.4761C197.969 19.4327 196.59 18.9173 194.773 18.9173C192.879 18.9173 191.435 19.579 190.456 20.9088Z" fill="#453C3A"/>
<path d="M230.106 16.1814C231.929 15.6024 233.566 15.316 235.002 15.316C237.515 15.316 239.416 15.8887 240.691 17.0276C241.967 18.1665 242.605 20.3489 242.605 23.5684C242.605 33.5705 242.753 38.8643 243.043 39.4624C243.339 40.0605 244.009 40.3468 245.073 40.3277C245.279 40.8685 245.382 41.403 245.382 41.9438C245.382 42.4465 245.221 42.7773 244.899 42.9491C244.576 43.1146 243.984 43.1973 243.114 43.1973C240.485 43.1973 238.874 43.1655 238.288 43.1018C237.702 43.0382 237.302 42.841 237.096 42.5165C236.89 42.192 236.787 41.6448 236.787 40.8876V28.8685C236.787 25.0382 236.375 22.4931 235.55 21.227C234.725 19.9608 233.398 19.3309 231.562 19.3309C229.99 19.3309 228.637 19.7699 227.49 20.6416C226.343 21.5133 225.776 23.0849 225.776 25.3563V31.2418C225.776 34.5313 225.841 37.5599 225.976 40.3341H229.126C229.352 40.8176 229.468 41.3394 229.468 41.8929C229.468 42.3956 229.365 42.7392 229.159 42.9237C228.952 43.1082 228.553 43.2036 227.967 43.2036H216.82C216.576 42.6119 216.453 42.052 216.453 41.5303C216.453 41.123 216.556 40.8176 216.762 40.6268C216.969 40.4295 217.31 40.3341 217.78 40.3341H219.739C219.894 37.3754 219.965 33.7551 219.965 29.4603C219.965 23.9756 219.746 20.8007 219.314 19.9226C218.876 19.0509 218.045 18.6119 216.814 18.6119C216.569 18.0902 216.447 17.5493 216.447 16.9958C216.447 16.4931 216.646 16.175 217.04 16.035C217.439 15.895 219.945 15.7551 224.558 15.6024C224.674 16.455 224.674 17.5557 224.558 18.8919C226.427 17.6575 228.276 16.7604 230.106 16.1814Z" fill="#453C3A"/>
<path d="M258.345 40.8685C256.38 38.947 255.394 35.6575 255.394 31.0127C255.394 25.8653 256.631 21.9395 259.112 19.2354C261.586 16.5313 265.361 15.176 270.432 15.176C272.912 15.176 274.703 15.4051 275.824 15.8568C276.939 16.3149 277.506 16.9958 277.525 17.9056C277.525 19.0191 277.126 20.0816 276.333 21.0869C273.499 19.6363 271.076 18.9109 269.072 18.9109C266.444 18.9109 264.575 19.7317 263.467 21.3796C262.359 23.0276 261.805 25.6044 261.805 29.1166C261.805 32.7243 262.346 35.4411 263.422 37.2736C264.498 39.106 266.469 40.0223 269.324 40.0223C271.501 40.0223 274.02 39.3096 276.9 37.878C277.525 38.7306 277.835 39.6087 277.835 40.4995C277.835 41.562 276.855 42.3701 274.897 42.9236C272.938 43.4836 270.728 43.7572 268.273 43.7572C263.622 43.7572 260.316 42.7964 258.345 40.8685Z" fill="#453C3A"/>
<path d="M308.819 17.632C310.52 19.2672 311.37 21.965 311.37 25.719C311.37 27.3733 311.067 28.5249 310.462 29.1739C309.856 29.8229 308.535 30.1474 306.493 30.1474H293.955C293.993 33.176 294.612 35.5557 295.81 37.2863C297.009 39.017 299.135 39.8823 302.176 39.8823C305.011 39.8823 307.652 39.1569 310.094 37.7063C310.906 38.5079 311.312 39.3542 311.312 40.245C311.312 41.492 310.268 42.3637 308.174 42.8664C306.087 43.369 303.722 43.6172 301.094 43.6172C296.248 43.6172 292.776 42.6119 290.669 40.5949C288.562 38.5779 287.505 35.1803 287.505 30.4019C287.505 25.6999 288.691 21.9841 291.068 19.2609C293.439 16.5376 296.745 15.176 300.984 15.176C304.508 15.176 307.118 15.9968 308.819 17.632ZM295.598 20.9088C294.612 22.2386 294.077 24.3128 293.981 27.1379H296.906C300.005 27.1379 302.118 27.0806 303.245 26.9533C304.373 26.8324 305.024 26.6352 305.204 26.3552C305.385 26.0753 305.475 25.5535 305.475 24.7964C305.475 22.9576 305.004 21.5132 304.057 20.4761C303.11 19.4327 301.731 18.9173 299.914 18.9173C298.02 18.9173 296.584 19.579 295.598 20.9088Z" fill="#453C3A"/>
<path d="M27.2395 14.5526C26.9303 13.6173 26.2538 12.8919 25.4162 12.4593C26.6146 11.5494 27.1622 10.0033 26.6725 8.53351C26.0411 6.6247 23.9085 5.5685 21.9112 6.17295C21.2541 6.3702 20.6935 6.72651 20.2619 7.17826C19.5338 5.42216 17.5043 4.48048 15.5908 5.05949C13.5935 5.66394 12.4853 7.7 13.1231 9.6088C13.1747 9.77423 13.2455 9.92693 13.3229 10.0796C13.0587 10.1051 12.7945 10.1496 12.5304 10.2323C10.5331 10.8368 9.42491 12.8728 10.0628 14.7817C10.6168 16.455 12.3371 17.4731 14.096 17.2885C13.9994 17.8357 14.0316 18.4084 14.2184 18.9747C14.8498 20.8835 16.9824 21.9397 18.9797 21.3352C20.3134 20.9344 21.2412 19.8909 21.5311 18.682C22.4524 19.261 23.6315 19.4582 24.7654 19.1146C26.7692 18.4975 27.8774 16.4614 27.2395 14.5526ZM17.4205 14.2726C17.5172 13.7254 17.485 13.1528 17.2981 12.5865C17.2466 12.4211 17.1757 12.2684 17.0984 12.1157C17.3626 12.0902 17.6267 12.0457 17.8909 11.963C18.5481 11.7657 19.1086 11.4094 19.5403 10.9577C19.8817 11.7785 20.5002 12.4211 21.267 12.8156C20.5904 13.331 20.1201 14.0499 19.9268 14.8516C19.2052 14.3935 18.3225 14.1772 17.4205 14.2726Z" fill="white"/>
<path d="M18.8509 15.8633C20.4557 15.8633 21.7566 14.6213 21.7566 13.0892C21.7566 11.5571 20.4557 10.3151 18.8509 10.3151C17.2461 10.3151 15.9451 11.5571 15.9451 13.0892C15.9451 14.6213 17.2461 15.8633 18.8509 15.8633Z" fill="#453C3A"/>
</svg>
