<svg width="39" height="44" viewBox="0 0 39 44" fill="none" xmlns="http://www.w3.org/2000/svg">
<path d="M3.90845 36.9574C4.07298 36.9574 4.18629 36.9805 4.24639 37.0277C4.30747 37.0748 4.33703 37.1682 4.33703 37.3087C4.33703 37.4874 4.28186 37.672 4.17249 37.8628C3.62569 37.6369 2.87395 37.5245 1.91629 37.5245H1.53895C1.51826 37.8557 1.5084 38.5583 1.5084 39.6313H3.6513C3.68874 39.7457 3.70746 39.8662 3.70746 39.9916C3.70746 40.074 3.69268 40.1292 3.66411 40.1563C3.63554 40.1844 3.57839 40.1984 3.49465 40.1984H1.50742C1.51037 41.4009 1.52023 42.1707 1.53796 42.508H2.2365C2.27098 42.5963 2.28871 42.6806 2.28871 42.7629C2.28871 42.8362 2.27393 42.8874 2.24536 42.9165C2.21679 42.9456 2.16556 42.9607 2.09364 42.9607H0.0561587C0.0187195 42.8613 0 42.7689 0 42.6836C0 42.6224 0.0147785 42.5772 0.045321 42.5491C0.0758634 42.521 0.125125 42.507 0.195077 42.507H0.516266C0.535971 42.0995 0.546808 41.0536 0.546808 39.3713C0.546808 38.471 0.536956 37.8176 0.516266 37.4101H0.0561587C0.0187195 37.3107 0 37.2184 0 37.133C0 37.0718 0.0147785 37.0267 0.045321 36.9986C0.0758634 36.9714 0.125125 36.9574 0.195077 36.9574H3.90845Z" fill="#453C3A"/>
<path d="M6.02968 38.0725C6.01785 37.7342 5.99716 37.5134 5.96662 37.41C5.93608 37.3076 5.88682 37.2414 5.81686 37.2123C5.7479 37.1832 5.65627 37.1681 5.54395 37.1681C5.50651 37.0768 5.48779 36.9875 5.48779 36.9001C5.48779 36.8098 5.52523 36.7526 5.59814 36.7285C5.67203 36.7054 5.90948 36.6934 6.31145 36.6934C6.54003 36.6934 6.69471 36.7044 6.7755 36.7265C6.85629 36.7486 6.9026 36.7897 6.91442 36.8499C6.92625 36.9102 6.93216 37.0135 6.93216 37.1601V40.8417C6.93511 41.5454 6.94693 42.1014 6.96664 42.5089H7.44842C7.48291 42.5852 7.50064 42.6675 7.50064 42.7548C7.50064 42.8341 7.48488 42.8883 7.45335 42.9174C7.42182 42.9465 7.36074 42.9616 7.27108 42.9616H5.54395C5.50651 42.8683 5.48779 42.7799 5.48779 42.6976C5.48779 42.6334 5.50356 42.5852 5.53509 42.5551C5.56661 42.525 5.61883 42.5089 5.69174 42.5089H6.01293C6.03559 42.1014 6.04741 41.4119 6.04741 40.4413C6.04741 39.2007 6.0415 38.4107 6.02968 38.0725Z" fill="#453C3A"/>
<path d="M9.38329 42.543C9.0887 42.2058 8.94092 41.6969 8.94092 41.0164C8.94092 40.2335 9.11925 39.6252 9.47689 39.1906C9.83355 38.757 10.3498 38.5392 11.0237 38.5392C11.6513 38.5392 12.1124 38.7078 12.408 39.0451C12.7036 39.3823 12.8504 39.8922 12.8504 40.5757C12.8504 41.3556 12.672 41.9629 12.3144 42.3965C11.9567 42.8301 11.4415 43.0479 10.7676 43.0479C10.14 43.0489 9.67886 42.8803 9.38329 42.543ZM11.6484 42.0813C11.7961 41.8294 11.87 41.4409 11.87 40.916C11.87 40.3118 11.7942 39.8631 11.6424 39.57C11.4907 39.2769 11.2296 39.1304 10.8592 39.1304C10.5291 39.1304 10.2907 39.2568 10.1439 39.5088C9.99611 39.7607 9.92222 40.1512 9.92222 40.6791C9.92222 41.2803 9.99808 41.727 10.1498 42.0201C10.3015 42.3132 10.5626 42.4597 10.9331 42.4597C11.2621 42.4597 11.5006 42.3333 11.6484 42.0813Z" fill="#453C3A"/>
<path d="M14.4732 38.6748C14.5343 38.6527 14.9176 38.6306 15.623 38.6065C15.6407 38.741 15.6407 38.9217 15.623 39.1475C15.9442 38.9277 16.2526 38.7752 16.5491 38.6899C16.8457 38.6045 17.1156 38.5624 17.358 38.5624C17.4388 38.5624 17.493 38.5724 17.5206 38.5905C17.5482 38.6096 17.562 38.6517 17.562 38.7159C17.562 38.8424 17.5423 38.9769 17.5038 39.1204C17.4644 39.264 17.4181 39.3553 17.3629 39.3935C17.3078 39.4316 17.2171 39.4607 17.09 39.4818C16.9629 39.5019 16.8881 39.5069 16.8664 39.4948C16.8447 39.4828 16.7787 39.4025 16.6693 39.2529C16.4122 39.2529 16.2033 39.3362 16.0447 39.5019C15.8861 39.6675 15.8063 40.0007 15.8063 40.5026C15.8092 41.4029 15.821 42.0714 15.8407 42.508H16.4526C16.4871 42.5843 16.5048 42.6666 16.5048 42.7539C16.5048 42.8332 16.489 42.8874 16.4575 42.9165C16.426 42.9456 16.3649 42.9607 16.2752 42.9607H14.4397C14.4023 42.8673 14.3836 42.779 14.3836 42.6967C14.3836 42.6325 14.3993 42.5843 14.4309 42.5542C14.4624 42.5231 14.5146 42.508 14.5865 42.508H14.886C14.9097 42.0714 14.9205 41.4993 14.9205 40.7926C14.9205 39.9274 14.887 39.4266 14.821 39.2881C14.754 39.1506 14.6269 39.0813 14.4387 39.0813C14.4013 38.999 14.3826 38.9137 14.3826 38.8264C14.3816 38.7471 14.4121 38.6969 14.4732 38.6748Z" fill="#453C3A"/>
<path d="M22.096 38.9277C22.3561 39.1857 22.4861 39.6113 22.4861 40.2035C22.4861 40.4644 22.4398 40.6461 22.3472 40.7485C22.2546 40.8509 22.0526 40.902 21.7403 40.902H19.823C19.8289 41.3798 19.9235 41.7552 20.1068 42.0282C20.29 42.3012 20.6151 42.4377 21.0802 42.4377C21.5137 42.4377 21.9176 42.3233 22.291 42.0945C22.4152 42.2209 22.4773 42.3544 22.4773 42.4949C22.4773 42.6917 22.3176 42.8292 21.9974 42.9085C21.6782 42.9878 21.3166 43.0269 20.9147 43.0269C20.1738 43.0269 19.6427 42.8683 19.3205 42.5502C18.9984 42.232 18.8368 41.696 18.8368 40.9422C18.8368 40.2004 19.0181 39.6143 19.3816 39.1847C19.7442 38.7551 20.2496 38.5403 20.8979 38.5403C21.4359 38.5403 21.8359 38.6698 22.096 38.9277ZM20.0743 39.4446C19.9235 39.6544 19.8417 39.9816 19.827 40.4273H20.2743C20.7482 40.4273 21.0713 40.4182 21.2437 40.3982C21.4162 40.3791 21.5157 40.348 21.5432 40.3038C21.5708 40.2597 21.5846 40.1774 21.5846 40.0579C21.5846 39.7678 21.5127 39.54 21.3679 39.3764C21.223 39.2118 21.0122 39.1305 20.7344 39.1305C20.4447 39.1305 20.224 39.2349 20.0743 39.4446Z" fill="#453C3A"/>
<path d="M26.1374 38.6989C26.4162 38.6075 26.6665 38.5624 26.8862 38.5624C27.2704 38.5624 27.5611 38.6527 27.7562 38.8324C27.9512 39.012 28.0488 39.3563 28.0488 39.8642C28.0488 41.4421 28.0714 42.2772 28.1158 42.3715C28.1611 42.4659 28.2636 42.511 28.4261 42.508C28.4577 42.5933 28.4734 42.6776 28.4734 42.763C28.4734 42.8422 28.4488 42.8944 28.3995 42.9215C28.3503 42.9476 28.2596 42.9607 28.1266 42.9607C27.7246 42.9607 27.4783 42.9557 27.3887 42.9456C27.299 42.9356 27.2379 42.9045 27.2064 42.8533C27.1749 42.8021 27.1591 42.7158 27.1591 42.5963V40.7003C27.1591 40.0961 27.0961 39.6946 26.9699 39.4948C26.8438 39.2951 26.6409 39.1957 26.3601 39.1957C26.1197 39.1957 25.9128 39.265 25.7374 39.4025C25.562 39.54 25.4753 39.7879 25.4753 40.1463V41.0747C25.4753 41.5936 25.4852 42.0714 25.5059 42.509H25.9877C26.0221 42.5853 26.0399 42.6676 26.0399 42.7549C26.0399 42.8342 26.0241 42.8884 25.9926 42.9175C25.9611 42.9466 25.9 42.9617 25.8103 42.9617H24.1058C24.0684 42.8683 24.0497 42.78 24.0497 42.6977C24.0497 42.6335 24.0655 42.5853 24.097 42.5552C24.1285 42.5241 24.1807 42.509 24.2527 42.509H24.5522C24.5758 42.0423 24.5866 41.4712 24.5866 40.7937C24.5866 39.9284 24.5531 39.4276 24.4871 39.2891C24.4201 39.1516 24.293 39.0823 24.1049 39.0823C24.0674 39 24.0487 38.9147 24.0487 38.8274C24.0487 38.7481 24.0792 38.6979 24.1393 38.6758C24.2004 38.6537 24.5837 38.6316 25.2891 38.6075C25.3069 38.742 25.3069 38.9157 25.2891 39.1265C25.5748 38.9317 25.8576 38.7902 26.1374 38.6989Z" fill="#453C3A"/>
<path d="M30.4559 42.5933C30.1554 42.2902 30.0046 41.7713 30.0046 41.0385C30.0046 40.2265 30.1938 39.6072 30.5731 39.1807C30.9515 38.7541 31.5288 38.5403 32.3042 38.5403C32.6835 38.5403 32.9574 38.5764 33.1288 38.6477C33.2993 38.7199 33.386 38.8273 33.3889 38.9709C33.3889 39.1465 33.3279 39.3142 33.2067 39.4727C32.7732 39.2439 32.4027 39.1295 32.0963 39.1295C31.6943 39.1295 31.4086 39.2589 31.2391 39.5189C31.0697 39.7789 30.985 40.1854 30.985 40.7394C30.985 41.3085 31.0677 41.7371 31.2323 42.0262C31.3968 42.3153 31.6983 42.4598 32.1347 42.4598C32.4677 42.4598 32.853 42.3474 33.2934 42.1216C33.3889 42.2561 33.4362 42.3946 33.4362 42.5351C33.4362 42.7027 33.2865 42.8302 32.987 42.9175C32.6875 43.0058 32.3495 43.049 31.9741 43.049C31.2628 43.049 30.7574 42.8974 30.4559 42.5933Z" fill="#453C3A"/>
<path d="M38.1741 38.9277C38.4342 39.1857 38.5642 39.6113 38.5642 40.2035C38.5642 40.4644 38.5179 40.6461 38.4253 40.7485C38.3327 40.8509 38.1307 40.902 37.8184 40.902H35.9011C35.9071 41.3798 36.0016 41.7552 36.1849 42.0282C36.3681 42.3012 36.6933 42.4377 37.1583 42.4377C37.5918 42.4377 37.9958 42.3233 38.3692 42.0945C38.4933 42.2209 38.5554 42.3544 38.5554 42.4949C38.5554 42.6917 38.3958 42.8292 38.0756 42.9085C37.7564 42.9878 37.3948 43.0269 36.9928 43.0269C36.2519 43.0269 35.7208 42.8683 35.3987 42.5502C35.0765 42.232 34.9149 41.696 34.9149 40.9422C34.9149 40.2004 35.0962 39.6143 35.4598 39.1847C35.8223 38.7551 36.3278 38.5403 36.976 38.5403C37.515 38.5403 37.914 38.6698 38.1741 38.9277ZM36.1524 39.4446C36.0016 39.6544 35.9199 39.9816 35.9051 40.4273H36.3524C36.8263 40.4273 37.1494 40.4182 37.3219 40.3982C37.4943 40.3791 37.5938 40.348 37.6214 40.3038C37.649 40.2597 37.6628 40.1774 37.6628 40.0579C37.6628 39.7678 37.5908 39.54 37.446 39.3764C37.3012 39.2118 37.0903 39.1305 36.8125 39.1305C36.5228 39.1305 36.3031 39.2349 36.1524 39.4446Z" fill="#453C3A"/>
<path d="M33.9179 2H4.63245V31.6935H33.9179V2Z" stroke="#453C3A" stroke-width="2.5" stroke-miterlimit="10"/>
<path d="M12.1653 17.1091L12.1653 31.4925" stroke="#453C3A" stroke-width="3" stroke-miterlimit="10"/>
<path d="M18.8774 16.1503L18.8774 31.4925" stroke="#453C3A" stroke-width="3" stroke-miterlimit="10"/>
<path fill-rule="evenodd" clip-rule="evenodd" d="M5.25745 31.4051V2.93689H33.339L5.25745 31.4051ZM19.2883 8.62114C19.865 8.92847 20.3308 9.44369 20.5437 10.1081C20.9829 11.4639 20.2199 12.9101 18.8402 13.3485C18.0594 13.5926 17.2476 13.4525 16.6132 13.0412C16.4136 13.8999 15.7747 14.6411 14.8564 14.9258C13.4812 15.3552 12.0128 14.6049 11.578 13.2491C11.4494 12.8469 11.4272 12.4401 11.4938 12.0514C10.2827 12.1825 9.09817 11.4594 8.71665 10.2708C8.27746 8.91491 9.0405 7.46867 10.4157 7.03932C10.5976 6.98057 10.7795 6.94893 10.9614 6.93086C10.9082 6.82239 10.8594 6.71392 10.8239 6.59642C10.3847 5.24057 11.1477 3.79434 12.523 3.36499C13.8405 2.95372 15.238 3.6226 15.7393 4.86997C16.0365 4.54909 16.4224 4.296 16.8749 4.1559C18.2502 3.72655 19.7186 4.47678 20.1533 5.83262C20.4905 6.87662 20.1134 7.97486 19.2883 8.62114ZM13.6986 8.71153C13.798 9.02227 13.8338 9.33571 13.8143 9.64143C13.9971 8.82668 14.692 8.20138 15.5494 8.10966C15.4269 7.94098 15.3233 7.75526 15.2424 7.55454C14.9452 7.87543 14.5592 8.12852 14.1067 8.26862C13.9248 8.32738 13.7429 8.35901 13.561 8.37709C13.6143 8.48556 13.6631 8.59403 13.6986 8.71153Z" fill="#453C3A"/>
<circle cx="14.7574" cy="8.99243" r="1.5" fill="#453C3A"/>
</svg>
