<svg width="40" height="43" viewBox="0 0 40 43" fill="none" xmlns="http://www.w3.org/2000/svg">
<path d="M4.651 36.465C4.81554 36.465 4.92884 36.4881 4.98894 36.5352C5.05003 36.5824 5.07958 36.6757 5.07958 36.8163C5.07958 36.9949 5.02441 37.1796 4.91505 37.3703C4.36824 37.1445 3.6165 37.0321 2.65885 37.0321H2.2815C2.26081 37.3633 2.25096 38.0659 2.25096 39.1389H4.39385C4.43129 39.2533 4.45001 39.3738 4.45001 39.4992C4.45001 39.5815 4.43523 39.6367 4.40666 39.6638C4.37809 39.6919 4.32095 39.706 4.2372 39.706H2.24997C2.25293 40.9084 2.26278 41.6783 2.28051 42.0155H2.97905C3.01353 42.1039 3.03127 42.1882 3.03127 42.2705C3.03127 42.3438 3.01649 42.395 2.98792 42.4241C2.95934 42.4532 2.90811 42.4682 2.83619 42.4682H0.798712C0.761273 42.3689 0.742554 42.2765 0.742554 42.1912C0.742554 42.13 0.757332 42.0848 0.787875 42.0567C0.818417 42.0286 0.867679 42.0145 0.937631 42.0145H1.25882C1.27852 41.607 1.28936 40.5612 1.28936 38.8789C1.28936 37.9786 1.27951 37.3252 1.25882 36.9176H0.798712C0.761273 36.8183 0.742554 36.7259 0.742554 36.6406C0.742554 36.5794 0.757332 36.5342 0.787875 36.5061C0.818417 36.479 0.867679 36.465 0.937631 36.465H4.651Z" fill="#453C3A"/>
<path d="M6.77223 37.58C6.76041 37.2418 6.73972 37.021 6.70917 36.9176C6.67863 36.8152 6.62937 36.749 6.55942 36.7199C6.49045 36.6907 6.39882 36.6757 6.28651 36.6757C6.24907 36.5843 6.23035 36.495 6.23035 36.4077C6.23035 36.3174 6.26779 36.2601 6.34069 36.2361C6.41459 36.213 6.65203 36.2009 7.05401 36.2009C7.28258 36.2009 7.43727 36.212 7.51806 36.2341C7.59885 36.2561 7.64515 36.2973 7.65698 36.3575C7.6688 36.4177 7.67471 36.5211 7.67471 36.6677V40.3493C7.67767 41.0529 7.68949 41.609 7.70919 42.0165H8.19098C8.22546 42.0928 8.24319 42.1751 8.24319 42.2624C8.24319 42.3417 8.22743 42.3959 8.1959 42.425C8.16437 42.4541 8.10329 42.4692 8.01363 42.4692H6.28651C6.24907 42.3758 6.23035 42.2875 6.23035 42.2052C6.23035 42.141 6.24611 42.0928 6.27764 42.0627C6.30917 42.0326 6.36138 42.0165 6.43429 42.0165H6.75548C6.77814 41.609 6.78996 40.9194 6.78996 39.9488C6.78996 38.7082 6.78405 37.9183 6.77223 37.58Z" fill="#453C3A"/>
<path d="M10.1258 42.0506C9.83126 41.7134 9.68347 41.2045 9.68347 40.5239C9.68347 39.741 9.8618 39.1328 10.2194 38.6982C10.5761 38.2646 11.0924 38.0468 11.7663 38.0468C12.3939 38.0468 12.855 38.2154 13.1505 38.5526C13.4461 38.8899 13.5929 39.3998 13.5929 40.0833C13.5929 40.8632 13.4146 41.4704 13.0569 41.9041C12.6993 42.3377 12.184 42.5555 11.5101 42.5555C10.8825 42.5565 10.4214 42.3879 10.1258 42.0506ZM12.3909 41.5889C12.5387 41.337 12.6126 40.9485 12.6126 40.4236C12.6126 39.8193 12.5367 39.3707 12.385 39.0776C12.2333 38.7845 11.9722 38.6379 11.6017 38.6379C11.2717 38.6379 11.0333 38.7644 10.8865 39.0163C10.7387 39.2683 10.6648 39.6587 10.6648 40.1867C10.6648 40.7879 10.7406 41.2346 10.8924 41.5277C11.0441 41.8207 11.3052 41.9673 11.6756 41.9673C12.0047 41.9673 12.2431 41.8408 12.3909 41.5889Z" fill="#453C3A"/>
<path d="M15.2158 38.1824C15.2769 38.1603 15.6601 38.1382 16.3656 38.1141C16.3833 38.2486 16.3833 38.4293 16.3656 38.6551C16.6868 38.4353 16.9951 38.2827 17.2917 38.1974C17.5882 38.1121 17.8582 38.0699 18.1006 38.0699C18.1814 38.0699 18.2355 38.08 18.2631 38.0981C18.2907 38.1171 18.3045 38.1593 18.3045 38.2235C18.3045 38.35 18.2848 38.4845 18.2464 38.628C18.207 38.7715 18.1607 38.8629 18.1055 38.901C18.0503 38.9392 17.9597 38.9683 17.8326 38.9894C17.7055 39.0094 17.6306 39.0144 17.6089 39.0024C17.5873 38.9904 17.5213 38.9101 17.4119 38.7605C17.1547 38.7605 16.9459 38.8438 16.7872 39.0094C16.6286 39.175 16.5488 39.5083 16.5488 40.0101C16.5518 40.9105 16.5636 41.579 16.5833 42.0156H17.1951C17.2296 42.0919 17.2474 42.1742 17.2474 42.2615C17.2474 42.3408 17.2316 42.395 17.2001 42.4241C17.1685 42.4532 17.1074 42.4683 17.0178 42.4683H15.1823C15.1448 42.3749 15.1261 42.2866 15.1261 42.2043C15.1261 42.14 15.1419 42.0919 15.1734 42.0618C15.2049 42.0306 15.2572 42.0156 15.3291 42.0156H15.6286C15.6522 41.579 15.6631 41.0068 15.6631 40.3002C15.6631 39.435 15.6296 38.9342 15.5636 38.7956C15.4966 38.6581 15.3695 38.5889 15.1813 38.5889C15.1439 38.5066 15.1251 38.4212 15.1251 38.3339C15.1242 38.2546 15.1547 38.2044 15.2158 38.1824Z" fill="#453C3A"/>
<path d="M22.8385 38.4353C23.0986 38.6932 23.2287 39.1188 23.2287 39.711C23.2287 39.972 23.1824 40.1537 23.0898 40.256C22.9971 40.3584 22.7952 40.4096 22.4828 40.4096H20.5656C20.5715 40.8874 20.6661 41.2628 20.8493 41.5358C21.0326 41.8088 21.3577 41.9453 21.8227 41.9453C22.2562 41.9453 22.6602 41.8309 23.0336 41.602C23.1577 41.7285 23.2198 41.862 23.2198 42.0025C23.2198 42.1992 23.0602 42.3368 22.74 42.4161C22.4208 42.4953 22.0592 42.5345 21.6572 42.5345C20.9163 42.5345 20.3853 42.3759 20.0631 42.0577C19.7409 41.7395 19.5793 41.2036 19.5793 40.4498C19.5793 39.708 19.7606 39.1218 20.1242 38.6922C20.4868 38.2626 20.9922 38.0479 21.6405 38.0479C22.1784 38.0479 22.5784 38.1773 22.8385 38.4353ZM20.8168 38.9522C20.6661 39.162 20.5843 39.4892 20.5695 39.9348H21.0168C21.4907 39.9348 21.8139 39.9258 21.9863 39.9057C22.1587 39.8867 22.2582 39.8556 22.2858 39.8114C22.3134 39.7672 22.3272 39.6849 22.3272 39.5655C22.3272 39.2754 22.2553 39.0476 22.1104 38.884C21.9656 38.7193 21.7548 38.638 21.4769 38.638C21.1873 38.638 20.9666 38.7424 20.8168 38.9522Z" fill="#453C3A"/>
<path d="M26.88 38.2065C27.1588 38.1151 27.409 38.0699 27.6288 38.0699C28.013 38.0699 28.3036 38.1603 28.4987 38.3399C28.6938 38.5196 28.7913 38.8639 28.7913 39.3718C28.7913 40.9496 28.814 41.7847 28.8583 41.8791C28.9037 41.9734 29.0061 42.0186 29.1687 42.0156C29.2002 42.1009 29.216 42.1852 29.216 42.2705C29.216 42.3498 29.1913 42.402 29.1421 42.4291C29.0928 42.4552 29.0022 42.4683 28.8692 42.4683C28.4672 42.4683 28.2209 42.4632 28.1312 42.4532C28.0416 42.4432 27.9805 42.412 27.949 42.3609C27.9174 42.3097 27.9017 42.2233 27.9017 42.1039V40.2079C27.9017 39.6036 27.8386 39.2021 27.7125 39.0024C27.5864 38.8027 27.3834 38.7033 27.1026 38.7033C26.8622 38.7033 26.6553 38.7726 26.48 38.9101C26.3046 39.0476 26.2179 39.2955 26.2179 39.6538V40.5823C26.2179 41.1012 26.2277 41.579 26.2484 42.0166H26.7302C26.7647 42.0929 26.7824 42.1752 26.7824 42.2625C26.7824 42.3418 26.7667 42.396 26.7351 42.4251C26.7036 42.4542 26.6425 42.4693 26.5529 42.4693H24.8484C24.811 42.3759 24.7922 42.2876 24.7922 42.2053C24.7922 42.141 24.808 42.0929 24.8395 42.0628C24.8711 42.0316 24.9233 42.0166 24.9952 42.0166H25.2947C25.3184 41.5499 25.3292 40.9787 25.3292 40.3012C25.3292 39.436 25.2957 38.9352 25.2297 38.7966C25.1627 38.6591 25.0356 38.5899 24.8474 38.5899C24.81 38.5076 24.7913 38.4223 24.7913 38.3349C24.7913 38.2556 24.8218 38.2054 24.8819 38.1834C24.943 38.1613 25.3262 38.1392 26.0317 38.1151C26.0494 38.2496 26.0494 38.4233 26.0317 38.634C26.3174 38.4393 26.6002 38.2978 26.88 38.2065Z" fill="#453C3A"/>
<path d="M31.1984 42.1009C30.8979 41.7978 30.7472 41.2788 30.7472 40.5461C30.7472 39.7341 30.9364 39.1148 31.3157 38.6882C31.694 38.2616 32.2714 38.0479 33.0467 38.0479C33.4261 38.0479 33.7 38.084 33.8714 38.1552C34.0418 38.2275 34.1285 38.3349 34.1315 38.4784C34.1315 38.6541 34.0704 38.8217 33.9492 38.9803C33.5157 38.7515 33.1453 38.637 32.8389 38.637C32.4369 38.637 32.1512 38.7665 31.9817 39.0265C31.8122 39.2864 31.7275 39.693 31.7275 40.247C31.7275 40.8161 31.8103 41.2447 31.9748 41.5338C32.1393 41.8229 32.4408 41.9674 32.8773 41.9674C33.2103 41.9674 33.5955 41.855 34.0359 41.6291C34.1315 41.7636 34.1788 41.9021 34.1788 42.0427C34.1788 42.2103 34.029 42.3378 33.7295 42.4251C33.43 42.5134 33.0921 42.5566 32.7167 42.5566C32.0053 42.5566 31.4999 42.405 31.1984 42.1009Z" fill="#453C3A"/>
<path d="M38.9166 38.4353C39.1768 38.6932 39.3068 39.1188 39.3068 39.711C39.3068 39.972 39.2605 40.1537 39.1679 40.256C39.0753 40.3584 38.8733 40.4096 38.561 40.4096H36.6437C36.6496 40.8874 36.7442 41.2628 36.9274 41.5358C37.1107 41.8088 37.4358 41.9453 37.9009 41.9453C38.3344 41.9453 38.7383 41.8309 39.1117 41.602C39.2359 41.7285 39.2979 41.862 39.2979 42.0025C39.2979 42.1992 39.1383 42.3368 38.8181 42.4161C38.4989 42.4953 38.1373 42.5345 37.7353 42.5345C36.9944 42.5345 36.4634 42.3759 36.1412 42.0577C35.8191 41.7395 35.6575 41.2036 35.6575 40.4498C35.6575 39.708 35.8388 39.1218 36.2023 38.6922C36.5649 38.2626 37.0703 38.0479 37.7186 38.0479C38.2575 38.0479 38.6565 38.1773 38.9166 38.4353ZM36.8949 38.9522C36.7442 39.162 36.6624 39.4892 36.6476 39.9348H37.0949C37.5688 39.9348 37.892 39.9258 38.0644 39.9057C38.2368 39.8867 38.3363 39.8556 38.3639 39.8114C38.3915 39.7672 38.4053 39.6849 38.4053 39.5655C38.4053 39.2754 38.3334 39.0476 38.1886 38.884C38.0437 38.7193 37.8329 38.638 37.555 38.638C37.2654 38.638 37.0457 38.7424 36.8949 38.9522Z" fill="#453C3A"/>
<path d="M34.6605 1.50757H5.375V31.201H34.6605V1.50757Z" fill="white" stroke="#453C3A" stroke-width="3" stroke-miterlimit="10"/>
<path d="M12.7913 8.73767V30.2914" stroke="#453C3A" stroke-width="3" stroke-miterlimit="10"/>
<path d="M20.0179 9.64722V31.2009" stroke="#453C3A" stroke-width="3" stroke-miterlimit="10"/>
<path d="M5.79602 1.22009V30.9088L35.0815 1.22009H5.79602Z" fill="#453C3A"/>
<path d="M22.7806 9.74165C22.5585 9.0488 22.0727 8.51149 21.4713 8.19099C22.3318 7.517 22.725 6.37168 22.3734 5.28292C21.92 3.86894 20.3887 3.08654 18.9545 3.5343C18.4826 3.68041 18.0801 3.94435 17.7701 4.27899C17.2473 2.97814 15.79 2.28058 14.4159 2.70948C12.9817 3.15724 12.186 4.66548 12.644 6.07946C12.681 6.202 12.7319 6.31512 12.7874 6.42824C12.5977 6.44709 12.408 6.48008 12.2183 6.54135C10.7841 6.98911 9.98839 8.49735 10.4464 9.91133C10.8443 11.1509 12.0796 11.905 13.3426 11.7683C13.2732 12.1737 13.2963 12.5979 13.4305 13.0174C13.8839 14.4313 15.4152 15.2137 16.8494 14.766C17.8071 14.469 18.4733 13.6961 18.6815 12.8005C19.3431 13.2295 20.1897 13.3756 21.004 13.121C22.4428 12.6639 23.2386 11.1556 22.7806 9.74165ZM15.7298 9.53427C15.7992 9.12893 15.7761 8.70473 15.6419 8.28526C15.6049 8.16271 15.554 8.04959 15.4985 7.93648C15.6882 7.91762 15.8779 7.88463 16.0676 7.82336C16.5395 7.67725 16.942 7.4133 17.2519 7.07866C17.4971 7.68667 17.9413 8.16271 18.4918 8.45493C18.0061 8.83671 17.6683 9.3693 17.5295 9.96317C17.0114 9.62382 16.3775 9.46357 15.7298 9.53427Z" fill="white"/>
<path d="M16.7571 10.7125C17.9094 10.7125 18.8436 9.79245 18.8436 8.65751C18.8436 7.52258 17.9094 6.60254 16.7571 6.60254C15.6047 6.60254 14.6705 7.52258 14.6705 8.65751C14.6705 9.79245 15.6047 10.7125 16.7571 10.7125Z" fill="#453C3A"/>
</svg>
